<svg xmlns="http://www.w3.org/2000/svg" width="84" height="378" fill="none"><path fill="#fff" d="M-104.401 254.662C-81.856 172.381 54.761 123.256 70.461 0 97.017 228.885-88.946 192.939-42.097 377.206c1.735 6.824-80.37-30.044-62.304-122.544Z"/><path fill="#E6F0F8" d="M-104.401 254.662C-81.856 172.381 54.761 123.256 70.461 0 97.017 228.885-88.946 192.939-42.097 377.206c1.735 6.824-80.37-30.044-62.304-122.544Z"/><path fill="#fff" d="M-33.67 297.63c12.813-48.653 107.323-111.114 116.378-185.012C97.804 228.294-24.876 261.051 1.043 375.482c.96 4.238-45.032-22.747-34.713-77.852Z"/><path fill="#E6F0F8" d="M-33.67 297.63c12.813-48.653 107.323-111.114 116.378-185.012C97.804 228.294-24.876 261.051 1.043 375.482c.96 4.238-45.032-22.747-34.713-77.852Z"/></svg>