<?xml version="1.0" standalone="no"?>
<!DOCTYPE svg PUBLIC "-//W3C//DTD SVG 20010904//EN"
 "http://www.w3.org/TR/2001/REC-SVG-20010904/DTD/svg10.dtd">
<svg version="1.0" xmlns="http://www.w3.org/2000/svg"
 width="320.000000pt" height="320.000000pt" viewBox="0 0 320.000000 320.000000"
 preserveAspectRatio="xMidYMid meet">
<metadata>
Created by potrace 1.11, written by Peter Selinger 2001-2013
</metadata>
<g transform="translate(0.000000,320.000000) scale(0.100000,-0.100000)"
fill="#000000" stroke="none">
<path d="M3088 3148 c-12 -24 -28 -54 -34 -68 -6 -14 -18 -32 -25 -40 -8 -8
-26 -33 -40 -55 -81 -123 -259 -289 -440 -408 -233 -154 -551 -297 -1079 -483
-52 -19 -102 -37 -110 -41 -8 -3 -17 -7 -20 -7 -57 -14 -423 -166 -540 -225
-176 -88 -276 -156 -376 -255 -65 -65 -89 -98 -122 -166 -61 -127 -85 -232
-84 -370 0 -181 50 -337 164 -512 76 -117 264 -305 364 -364 78 -47 69 -52
104 61 20 65 73 175 103 211 137 172 321 268 702 369 55 14 141 38 190 52 50
14 97 26 105 28 47 10 229 83 315 126 225 114 390 277 499 495 26 52 46 97 44
99 -2 2 -24 -15 -48 -39 -103 -98 -263 -184 -476 -255 -99 -33 -321 -92 -399
-107 -11 -2 -99 -20 -195 -39 -96 -20 -191 -38 -210 -41 -19 -3 -43 -7 -52
-10 -10 -3 -30 -7 -45 -10 -39 -7 -270 -61 -312 -74 -19 -5 -37 -7 -40 -5 -8
9 118 131 194 190 132 101 268 175 685 371 347 163 562 305 736 485 248 258
397 594 458 1037 7 50 11 92 10 92 -2 0 -14 -19 -26 -42z"/>
</g>
</svg>
