<svg xmlns="http://www.w3.org/2000/svg" width="31" height="30" fill="none"><g fill="#4B3F40" clip-path="url(#a)"><path d="M6.562 2.773h17.877a.444.444 0 0 0 .443-.44.438.438 0 0 0-.443-.44H6.562a.444.444 0 0 0-.442.44.438.438 0 0 0 .442.44Zm18.32 1.455a.438.438 0 0 0-.443-.44H6.562a.446.446 0 0 0-.426.267.437.437 0 0 0 .25.584c.056.021.116.03.176.028h17.877a.444.444 0 0 0 .443-.44Z"/><path d="M23.407 13.022H4.62v-1.336c0-.085.068-.153.153-.153h1.495a.445.445 0 0 0 .461-.44.437.437 0 0 0-.286-.411.446.446 0 0 0-.175-.028H4.773c-.572 0-1.038.463-1.038 1.032v1.336H2.032a.753.753 0 0 1-.53-.219.743.743 0 0 1-.22-.526V1.623c0-.41.336-.744.75-.744h22.894a.446.446 0 0 0 .426-.267.438.438 0 0 0-.426-.612H2.032c-.434 0-.85.172-1.155.476a1.62 1.62 0 0 0-.48 1.147v10.653A1.63 1.63 0 0 0 2.032 13.9h21.374a.444.444 0 0 0 .443-.44.438.438 0 0 0-.443-.44v.002Z"/><path d="M28.968 0h-1.977a.445.445 0 0 0-.425.267.436.436 0 0 0 .25.584c.056.02.116.03.175.028h1.977c.414 0 .75.334.75.744v10.653c0 .41-.336.745-.75.745h-1.703v-1.336c0-.568-.466-1.032-1.038-1.032H8.333a.444.444 0 0 0-.443.44.438.438 0 0 0 .443.44h17.894c.085 0 .153.068.153.152v1.336h-.908a.444.444 0 0 0-.443.44.438.438 0 0 0 .443.44h3.497c.433-.002.849-.173 1.155-.477a1.62 1.62 0 0 0 .479-1.148V1.623c0-.43-.173-.843-.48-1.147A1.641 1.641 0 0 0 28.968 0Z"/><path d="M25.87 9.64c.768 0 1.395-.623 1.395-1.388 0-.764-.627-1.386-1.396-1.386-.36.015-.7.167-.95.426a1.383 1.383 0 0 0 0 1.922c.25.258.59.41.95.425Zm0-1.895a.515.515 0 0 1 .471.314.504.504 0 0 1-.277.664.515.515 0 0 1-.197.039.513.513 0 0 1-.49-.51.507.507 0 0 1 .492-.507Zm-5.211.508c0 .764.626 1.386 1.396 1.386.769 0 1.395-.622 1.395-1.387 0-.764-.626-1.386-1.395-1.386-.77 0-1.396.622-1.396 1.387Zm1.907 0a.505.505 0 0 1-.312.487.515.515 0 0 1-.679-.288.505.505 0 0 1 .125-.547.514.514 0 0 1 .866.348ZM15.5 22.068a.444.444 0 0 0 .442-.439v-5.92a.435.435 0 0 0-.269-.422.445.445 0 0 0-.616.423v5.92c0 .242.199.438.443.438Zm6.581-1.623a.435.435 0 0 0-.268-.423.445.445 0 0 0-.616.423.743.743 0 0 1-.232.505.753.753 0 0 1-1.267-.505V15.71a.437.437 0 0 0-.269-.423.445.445 0 0 0-.616.423v4.736a1.63 1.63 0 0 0 1.634 1.623c.434 0 .849-.172 1.155-.476a1.62 1.62 0 0 0 .48-1.148Zm-10.336-5.174a.444.444 0 0 0-.443.439v4.735a.743.743 0 0 1-.233.5.753.753 0 0 1-1.265-.5.438.438 0 0 0-.443-.44.445.445 0 0 0-.443.44 1.63 1.63 0 0 0 1.635 1.623c.433 0 .848-.171 1.155-.476a1.62 1.62 0 0 0 .479-1.147V15.71a.439.439 0 0 0-.442-.44Zm6.438 11.187h-.248a.437.437 0 0 0-.36-.719.443.443 0 0 0-.302.138l-.585.58h-.744v-.74l.585-.58a.437.437 0 0 0-.266-.766.443.443 0 0 0-.32.109v-.246a.438.438 0 0 0-.442-.44.445.445 0 0 0-.443.44v.246a.444.444 0 0 0-.719.358c.005.113.052.22.134.299l.585.58v.74h-.745l-.586-.58a.443.443 0 0 0-.75.271c-.01.111.022.221.09.31h-.248a.444.444 0 0 0-.443.44.438.438 0 0 0 .443.44h.248a.437.437 0 0 0 .361.709.443.443 0 0 0 .3-.129l.585-.58h.745v.739l-.585.58a.439.439 0 0 0 0 .623.444.444 0 0 0 .585.035v.246a.438.438 0 0 0 .443.44.444.444 0 0 0 .443-.44v-.246a.443.443 0 0 0 .714-.346.438.438 0 0 0-.13-.31l-.584-.582v-.74h.744l.585.581a.443.443 0 0 0 .756-.31.437.437 0 0 0-.094-.27h.248a.445.445 0 0 0 .409-.272.436.436 0 0 0-.24-.575.445.445 0 0 0-.17-.033Zm4.323-2.654a.444.444 0 0 0-.626 0l-.361.36-.361-.36a.445.445 0 0 0-.742.315.438.438 0 0 0 .116.306l.361.36-.36.359a.438.438 0 0 0 .316.737.445.445 0 0 0 .309-.116l.36-.359.362.36a.44.44 0 0 0 .483.095.44.44 0 0 0 .143-.717l-.362-.36.362-.358a.438.438 0 0 0 0-.622Zm-12.037 0a.444.444 0 0 0-.625 0l-.361.36-.362-.36a.444.444 0 0 0-.742.315.438.438 0 0 0 .117.306l.36.36-.36.359a.438.438 0 0 0 .316.737.445.445 0 0 0 .31-.116l.36-.359.362.36a.44.44 0 0 0 .482.095.44.44 0 0 0 .143-.717l-.36-.36.36-.358a.439.439 0 0 0 0-.622Z"/></g><defs><clipPath id="a"><path fill="#fff" d="M0 0h31v30H0z"/></clipPath></defs></svg>