<svg xmlns="http://www.w3.org/2000/svg" xml:space="preserve" width="800" height="800" viewBox="0 0 490 490"><path d="M425 79.859H65c-35.841 0-65 29.159-65 65v189c0 35.841 29.159 65 65 65h32.182c-.054.421-.091.847-.091 1.282 0 5.522 4.477 10 10 10h40.498c5.523 0 10-4.478 10-10 0-.436-.037-.861-.091-1.282h175.007c-.054.421-.091.847-.091 1.282 0 5.522 4.477 10 10 10h40.498c5.523 0 10-4.478 10-10 0-.436-.037-.861-.091-1.282H425c35.841 0 65-29.159 65-65v-189c0-35.841-29.159-65-65-65zm35 254c0 19.299-15.701 35-35 35H65c-19.299 0-35-15.701-35-35v-189c0-19.299 15.701-35 35-35h360c19.299 0 35 15.701 35 35v189z"/><path d="M131.717 239.923a28.419 28.419 0 0 1 7.437-19.208l-31.548-5.985c-8.105-1.538-15.609 4.676-15.609 12.926v24.535c0 8.249 7.504 14.463 15.609 12.926l31.548-5.985a28.428 28.428 0 0 1-7.437-19.209zM212.88 214.73l-31.548 5.985a28.42 28.42 0 0 1 7.437 19.208 28.42 28.42 0 0 1-7.437 19.208l31.548 5.985c8.105 1.538 15.609-4.677 15.609-12.926v-24.535c0-8.249-7.504-14.463-15.609-12.925zM141.32 214.985c.189.996.498 1.941.891 2.837a28.403 28.403 0 0 1 18.032-6.425c6.841 0 13.117 2.41 18.032 6.425.394-.896.703-1.841.891-2.837l6.27-33.049c1.538-8.104-4.677-15.608-12.926-15.608h-24.535c-8.249 0-14.463 7.504-12.926 15.608l6.271 33.049zM179.167 264.861a13.165 13.165 0 0 0-.891-2.837c-4.915 4.015-11.191 6.425-18.032 6.425s-13.117-2.411-18.032-6.425a13.072 13.072 0 0 0-.891 2.837l-6.27 33.049c-1.538 8.104 4.677 15.608 12.926 15.608h24.535c8.249 0 14.463-7.504 12.926-15.608l-6.271-33.049z"/><circle cx="160.243" cy="239.923" r="18.924"/><path d="M160.243 134.556c-58.1 0-105.367 47.268-105.367 105.367S102.144 345.29 160.243 345.29 265.61 298.023 265.61 239.923s-47.267-105.367-105.367-105.367zm0 190.735c-47.072 0-85.367-38.296-85.367-85.367s38.295-85.367 85.367-85.367 85.367 38.296 85.367 85.367-38.295 85.367-85.367 85.367zM418.567 156.328h-36.085c-5.523 0-10 4.478-10 10s4.477 10 10 10h36.085c5.523 0 10-4.478 10-10s-4.477-10-10-10z"/></svg>