<svg xmlns="http://www.w3.org/2000/svg" width="25" height="29" fill="none"><g fill="#4B3F40" clip-path="url(#a)"><path d="m24.195 24.647-1.889-3.573a.578.578 0 0 0-.216-.227.597.597 0 0 0-.825.227 883.46 883.46 0 0 0-1.996 3.776 2.628 2.628 0 0 0-.252 1.124c.001.717.293 1.404.812 1.911a2.805 2.805 0 0 0 1.956.793c.734 0 1.438-.286 1.956-.793.52-.507.811-1.194.812-1.91 0-.437-.113-.858-.355-1.325l-.002-.003Zm-2.41 2.886c-.266 0-.528-.066-.762-.19a1.583 1.583 0 0 1-.577-.523 1.535 1.535 0 0 1-.115-1.486 1100 1100 0 0 1 1.453-2.75l1.37 2.587c.156.302.227.55.227.803 0 .413-.17.81-.468 1.102-.3.292-.705.457-1.128.457Zm-1.854-8.07 3.45-1.491c.267-.115.509-.282.71-.49a2.12 2.12 0 0 0 .593-1.561 2.085 2.085 0 0 0-.21-.824l-.735-1.52a.581.581 0 0 0-.325-.292.599.599 0 0 0-.44.012l-.655.281-1.013-1.976c-1.725-3.373-6.019-4.842-9.523-3.248L8.188 9.967v-3.72l.59-2.21A.59.59 0 0 1 9 3.761c.1-.067.22-.103.341-.103h6.643c2.366 0 3.806-2.712 3.866-2.827a.561.561 0 0 0-.236-.759.597.597 0 0 0-.286-.073H5.205c-.295 0-.598.014-.9.041-.572.05-1.104.31-1.49.725a2.21 2.21 0 0 0-.595 1.519v11.454c0 .152.062.298.172.405a.594.594 0 0 0 .83 0 .566.566 0 0 0 .171-.405V6.746h3.623v4.114a.562.562 0 0 0 .27.482.595.595 0 0 0 .56.037l4.43-1.985c2.937-1.337 6.536-.107 7.983 2.72l.985 1.925-3.24 1.389-1.07-1.881a2.61 2.61 0 0 0-1.505-1.2 2.68 2.68 0 0 0-1.937.142L7.344 15.42a.58.58 0 0 0-.24.211.563.563 0 0 0-.09.303v9.284H3.392v-6.445a.566.566 0 0 0-.171-.405.593.593 0 0 0-.83 0 .566.566 0 0 0-.17.405v6.446a1.98 1.98 0 0 0-1.351.575 1.89 1.89 0 0 0-.557 1.332v1.302A.58.58 0 0 0 .897 29h8.725c.155 0 .304-.06.414-.168a.566.566 0 0 0 .172-.404v-1.302a1.89 1.89 0 0 0-.574-1.35 1.98 1.98 0 0 0-1.382-.559h-.066v-8.926l5.818-2.772a1.482 1.482 0 0 1 1.07-.079c.355.11.652.346.833.663l1.016 1.787-.312.134a.587.587 0 0 0-.311.318.56.56 0 0 0 .01.44l.727 1.594c.237.518.675.923 1.217 1.127.542.204 1.145.19 1.676-.04ZM3.392 2.286a1.085 1.085 0 0 1 .29-.746c.189-.204.45-.332.73-.358a9.02 9.02 0 0 1 .792-.036h13.034c-.501.624-1.301 1.37-2.253 1.37H9.341c-.377 0-.743.117-1.046.334a1.736 1.736 0 0 0-.643.873l-.504 1.88H3.392V2.285Zm5.645 24.841v.729H1.486v-.729c0-.42.35-.764.782-.764h5.986c.432 0 .783.343.783.764Zm9.074-9.215-.488-1.068 5.3-2.272.492 1.016c.119.245.13.52.033.774a.997.997 0 0 1-.543.564l-3.449 1.492a1.044 1.044 0 0 1-.78.018 1.012 1.012 0 0 1-.565-.524Z"/><path d="M2.265 16.43c.197.469.902.457 1.087-.014.196-.496-.38-.97-.847-.697a.58.58 0 0 0-.254.312.565.565 0 0 0 .014.398Z"/></g><defs><clipPath id="a"><path fill="#fff" d="M0 0h25v29H0z"/></clipPath></defs></svg>