<svg xmlns="http://www.w3.org/2000/svg" width="48" height="32" fill="none" viewBox="0 0 48 32"><path fill="#000" d="M46.79 31.532H1.21l-.15-.48A24 24 0 1 1 48 23.989a23.792 23.792 0 0 1-1.06 7.063l-.15.48ZM2.226 30.16h43.548A22.627 22.627 0 0 0 9.146 6.93a22.629 22.629 0 0 0-6.92 23.23Z"/><path fill="#000" d="M23.314.675h1.372v3.428h-1.372V.675ZM11.749 4.14l1.187-.685 1.715 2.969-1.188.686-1.714-2.97ZM3.465 12.929l.686-1.188 2.97 1.715-.686 1.187-2.97-1.714ZM.686 23.304h3.428v1.371H.686v-1.371ZM43.886 23.304h3.428v1.371h-3.428v-1.371ZM40.877 13.447l2.97-1.714.686 1.187-2.97 1.715-.686-1.188ZM33.35 6.429l1.715-2.97 1.188.686-1.715 2.97-1.187-.686ZM24 27.418a3.429 3.429 0 1 1 0-6.858 3.429 3.429 0 0 1 0 6.858Zm0-5.486a2.057 2.057 0 1 0 0 4.113 2.057 2.057 0 0 0 0-4.113Z"/><path fill="#000" d="m13.54 14.503.97-.97 8.03 8.03-.97.97-8.03-8.03Z"/></svg>