<svg xmlns="http://www.w3.org/2000/svg" width="48" height="48" fill="none" viewBox="0 0 48 48"><path fill="#000" d="m48 19.73-6.194-4.424-2.276 1.626a18.474 18.474 0 0 0-3.834-4.245 6.933 6.933 0 0 0 3.014-5.72 6.977 6.977 0 0 0-2.328-5.198 7.012 7.012 0 0 0-5.45-1.725c-3.135.355-5.701 2.882-6.1 6.01a7.064 7.064 0 0 0 .137 2.491 18.778 18.778 0 0 0-3.807.196l-.736-.736-1.974 1.016c-.55-.28-1.127-.519-1.726-.712l-.678-2.116h-5.774l-.679 2.116c-.598.193-1.176.432-1.725.712L5.896 8.005l-4.083 4.083 1.016 1.974c-.28.55-.519 1.127-.712 1.725L0 16.467v5.775l2.117.678c.192.6.43 1.177.711 1.726l-1.016 1.973 4.083 4.082.226-.115c.044.24.073.48.073.723v3.18c0 .833.195 1.666.565 2.41l1.757 3.54v1.509a2.32 2.32 0 0 0-1.548 2.18V48H24v-2.323c1.305 0 2.602-.141 3.871-.41v.41A2.325 2.325 0 0 0 30.194 48h6.193a2.325 2.325 0 0 0 2.323-2.323v-7.242a18.345 18.345 0 0 0 3.839-10.564h3.903v-6.194H48V19.73Zm-2.107.398H37.72l4.087-2.92 4.087 2.92ZM33.29 15.483a1.55 1.55 0 0 1-1.548 1.548 1.55 1.55 0 0 1-1.549-1.548h3.097Zm-2.322-8.516a.775.775 0 1 1 1.549 0 .775.775 0 0 1-1.55 0Zm-4.599-.717c.309-2.429 2.303-4.391 4.738-4.666.215-.025.43-.037.642-.037 1.335 0 2.596.477 3.601 1.376a5.43 5.43 0 0 1 1.811 4.044 5.4 5.4 0 0 1-2.492 4.558c-.819.526-1.32 1.419-1.369 2.41h-.784V9.147a2.32 2.32 0 0 0 1.549-2.18 2.325 2.325 0 0 0-2.323-2.323 2.325 2.325 0 0 0-2.323 2.323c0 1.008.65 1.86 1.549 2.18v4.788h-.786c-.057-1-.55-1.889-1.354-2.403-1.787-1.14-2.73-3.165-2.459-5.282ZM4.377 24.26a10.047 10.047 0 0 1-.892-2.165l-.113-.4-1.824-.583v-3.515l1.824-.584.113-.4a9.979 9.979 0 0 1 .893-2.166l.203-.363-.875-1.699L6.193 9.9l1.698.875.363-.203a9.982 9.982 0 0 1 2.166-.893l.4-.113.583-1.824h3.516l.583 1.824.4.113a9.981 9.981 0 0 1 2.166.893l.363.203 1.699-.875 2.486 2.486-.874 1.699.203.363c.376.671.676 1.4.892 2.166l.113.4 1.824.583v3.515l-1.824.584-.113.4a10.05 10.05 0 0 1-.892 2.166l-.203.362.12.235c-.093.025-.186.05-.274.086a2.317 2.317 0 0 0-1.032-1.375 8.438 8.438 0 0 0 1.121-4.215c0-4.695-3.82-8.516-8.516-8.516-4.695 0-8.516 3.82-8.516 8.516a8.51 8.51 0 0 0 1.936 5.396 2.025 2.025 0 0 0-1.936 2.018c0 .202.042.4.102.594l-1.04-1.04.874-1.699-.204-.362Zm13.43-.431a2.304 2.304 0 0 0-1.549-.604c-.272 0-.531.056-.774.142v-7.11a2.325 2.325 0 0 0-2.323-2.322 2.325 2.325 0 0 0-2.322 2.322v9.661c-2.74-.97-4.645-3.59-4.645-6.564a6.975 6.975 0 0 1 6.967-6.968 6.975 6.975 0 0 1 6.968 6.968c0 1.414-.42 2.758-1.21 3.915a2.307 2.307 0 0 0-1.113.56ZM8.144 36.21a3.897 3.897 0 0 1-.403-1.72V31.31c0-.871-.207-1.744-.596-2.523l-.902-1.805a.477.477 0 0 1-.05-.214c0-.264.214-.479.552-.479a4.098 4.098 0 0 1 4.093 4.093v2.875h1.548v-17a.774.774 0 0 1 1.548 0V28.644h1.549v-3.096a.774.774 0 0 1 1.548 0v3.096h1.549v-3.096a.775.775 0 0 1 1.548 0v3.096h1.548v-1.548a.774.774 0 0 1 1.549 0v8.516c0 .832-.275 1.658-.774 2.323l-1.549 2.064v1.807H10.065v-1.73l-1.92-3.865Zm14.307 10.24H8.516v-2.323c0-.427.347-.774.774-.774h12.387c.428 0 .775.347.775.774v2.323Zm14.71-12.387h-7.743v-.775c0-.427.347-.774.774-.774h6.194c.428 0 .774.347.774.774v.775Zm-7.743 1.548h7.742v7.742H29.42v-7.742Zm6.968 10.839h-6.194a.774.774 0 0 1-.774-.775v-.774h7.742v.774a.774.774 0 0 1-.774.775Zm2.323-10.782v-2.38a2.325 2.325 0 0 0-2.323-2.322h-6.194a2.325 2.325 0 0 0-2.322 2.322v10.384a17.267 17.267 0 0 1-3.872.442 2.318 2.318 0 0 0-1.547-2.167v-1.433l1.238-1.651a5.448 5.448 0 0 0 1.084-3.252v-8.516c0-.788-.396-1.483-.998-1.904l-.282-.546c.28-.55.518-1.127.711-1.726l2.118-.68v-5.774l-2.117-.678a11.664 11.664 0 0 0-.712-1.726l1.016-1.973-1.955-1.956c.995-.082 2-.079 2.995.01a6.947 6.947 0 0 0 2.445 2.695c.4.256.65.75.65 1.29v1.355a3.1 3.1 0 0 0 3.097 3.097 3.1 3.1 0 0 0 3.097-3.097v-1.387c0-.035.01-.068.012-.103a16.938 16.938 0 0 1 3.419 3.839l-2.657 1.897v1.948h1.548v6.193h3.84a16.79 16.79 0 0 1-2.291 7.8Zm6.193-9.347H38.71v-4.645h6.193v4.645Z"/><path fill="#000" d="M34.065 26.321h1.548v1.549h-1.548V26.32ZM30.968 26.321h1.548v1.549h-1.548V26.32ZM27.871 26.321h1.548v1.549h-1.548V26.32Z"/></svg>