<svg xmlns="http://www.w3.org/2000/svg" width="30" height="29" fill="none"><g clip-path="url(#a)"><mask id="b" width="30" height="29" x="0" y="0" maskUnits="userSpaceOnUse" style="mask-type:luminance"><path fill="#fff" d="M.385 0h29.23v29H.385V0Z"/></mask><g mask="url(#b)"><path fill="#4B3F40" d="M15.527 19.197a.433.433 0 0 0 .412-.258.423.423 0 0 0-.412-.592.43.43 0 0 0-.41.425.423.423 0 0 0 .41.425Zm2.997.162a.43.43 0 0 0 .428-.425.43.43 0 0 0-.857 0 .43.43 0 0 0 .428.425Zm-1.905 2.157a.433.433 0 0 0 .413-.257.423.423 0 0 0-.413-.592.43.43 0 0 0-.41.425.423.423 0 0 0 .41.425Zm12.568 5.501c-1.28 0-1.956.324-2.55.61-.563.269-1.095.524-2.18.524-1.084 0-1.615-.255-2.178-.525-.595-.285-1.27-.609-2.55-.609-1.28 0-1.955.324-2.551.61-.563.269-1.094.524-2.178.524-1.085 0-1.615-.255-2.178-.525-.596-.285-1.271-.609-2.551-.609-1.28 0-1.956.324-2.551.61-.562.269-1.094.524-2.178.524-1.085 0-1.616-.255-2.178-.525-.596-.285-1.27-.609-2.55-.609a.43.43 0 0 0-.43.425.424.424 0 0 0 .43.425c1.084 0 1.614.255 2.177.524.596.285 1.27.609 2.55.609 1.281 0 1.956-.324 2.551-.609.563-.27 1.094-.523 2.179-.523 1.084 0 1.615.254 2.178.523.596.285 1.27.609 2.551.609 1.28 0 1.955-.324 2.55-.609.563-.27 1.095-.523 2.178-.523 1.085 0 1.616.254 2.179.523.595.285 1.27.609 2.55.609 1.281 0 1.956-.324 2.552-.609.563-.27 1.094-.523 2.178-.523a.43.43 0 0 0 .396-.263.423.423 0 0 0-.396-.588ZM9.277 25.01a.423.423 0 0 0 .428.425.43.43 0 0 0 .429-.425.423.423 0 0 0-.429-.425.43.43 0 0 0-.428.425Zm5.106.72a.421.421 0 0 0 .26.41.431.431 0 0 0 .569-.241.421.421 0 0 0-.104-.457.43.43 0 0 0-.725.289Zm-11.121-.424a.422.422 0 0 0 .26.41.431.431 0 0 0 .568-.242.422.422 0 0 0-.104-.457.43.43 0 0 0-.724.29Zm16.288-.425c0 .113.045.221.125.3a.43.43 0 0 0 .732-.3.423.423 0 0 0-.428-.407.43.43 0 0 0-.429.407Zm-9.28-3.17c-1.28 0-1.955.322-2.55.608-.562.269-1.094.524-2.178.524-1.085 0-1.616-.255-2.178-.524-.596-.286-1.27-.609-2.55-.609a.433.433 0 0 0-.413.258.422.422 0 0 0 .243.565c.054.02.111.03.17.027 1.084 0 1.614.255 2.177.524.596.285 1.27.608 2.55.608 1.281 0 1.956-.323 2.551-.608.563-.27 1.094-.524 2.179-.524 1.084 0 1.615.255 2.178.524.596.285 1.27.608 2.551.608 1.28 0 1.955-.323 2.55-.608.563-.27 1.095-.524 2.178-.524 1.085 0 1.616.255 2.179.524.595.285 1.27.608 2.55.608 1.281 0 1.956-.323 2.552-.608.563-.27 1.094-.524 2.178-.524a.43.43 0 0 0 .41-.425.423.423 0 0 0-.41-.425c-1.28 0-1.956.323-2.55.608-.563.27-1.095.525-2.18.525-1.084 0-1.615-.255-2.178-.524-.17-.082-.349-.168-.546-.248.354-.861.357-1.572.178-2.4-.092-.425-.18-.826-.094-1.383.058-.364.175-.717.348-1.043.287-.061.544-.219.729-.445a1.27 1.27 0 0 0 .286-.801v-1.83c0-.6-.421-1.105-.986-1.239v-2.91a5.04 5.04 0 0 0 3.117-1.45 4.994 4.994 0 0 0 0-7.1 5.1 5.1 0 0 0-5.855-.934 5.055 5.055 0 0 0-1.637 1.3 8.05 8.05 0 0 0-3.616-.858H9.088a1.275 1.275 0 0 0-.453-.704A1.293 1.293 0 0 0 7.839 0H5.995C5.39 0 4.881.418 4.746.978H.813a.431.431 0 0 0-.396.263.422.422 0 0 0 .232.555.431.431 0 0 0 .164.033h3.898v7.08H.813a.43.43 0 0 0-.41.424.423.423 0 0 0 .41.425h3.933c.067.278.227.526.454.704.226.177.507.274.795.274H7.84c.606 0 1.114-.417 1.25-.978h4.056a.2.2 0 0 1 .2.198v2.974c-.281.067-.531.226-.71.45a1.27 1.27 0 0 0-.277.79v1.829c0 .248.073.49.21.698.137.207.332.37.561.47a3.345 3.345 0 0 0-.094 1.125c.071.786.43 1.073.537 1.684.103.593-.28 1.32-1.139 2.162-.515-.226-1.15-.428-2.162-.428ZM24.706 7.97a4.18 4.18 0 0 1-2.973 1.221 4.194 4.194 0 0 1-2.655-.936l5.915-5.869c1.338 1.61 1.218 4.09-.287 5.584ZM18.76 2.072a4.224 4.224 0 0 1 5.628-.285l-5.915 5.868a4.16 4.16 0 0 1 .287-5.583Zm-5.615 6.836h-4.02V5.026a.424.424 0 0 0-.428-.407.43.43 0 0 0-.428.407v4.436a.427.427 0 0 1-.429.425H5.995a.43.43 0 0 1-.428-.425V1.274c0-.234.192-.425.428-.425H7.84c.236 0 .429.191.429.425v1.77a.422.422 0 0 0 .26.408.431.431 0 0 0 .569-.24c.02-.054.03-.111.027-.169V1.83h5.08c1.086 0 2.158.245 3.126.714-1.113 1.92-.782 4.435.823 6.029a5.04 5.04 0 0 0 3.185 1.454v2.87H14.2v-2.94c0-.578-.474-1.048-1.056-1.048Zm1.271 10.923c-.113-.649-.465-.93-.527-1.615a2.53 2.53 0 0 1 .1-.943h3.394a.432.432 0 0 0 .412-.258.421.421 0 0 0-.242-.564.433.433 0 0 0-.17-.027h-3.74a.43.43 0 0 1-.427-.425v-1.83c0-.234.192-.425.427-.425h8.253c.236 0 .429.191.429.425V16a.427.427 0 0 1-.429.425H19.38a.433.433 0 0 0-.412.258.422.422 0 0 0 .242.564c.055.02.112.03.17.027h1.833c-.115.29-.197.586-.243.887-.108.71.005 1.231.104 1.69.15.689.151 1.251-.163 1.971a5.815 5.815 0 0 0-1.183-.11c-1.28 0-1.954.322-2.55.608-.563.269-1.094.524-2.178.524-.808 0-1.308-.141-1.743-.325.923-.973 1.304-1.856 1.158-2.687Zm9.853 5.9a.421.421 0 0 0 .26.409.432.432 0 0 0 .569-.241.421.421 0 0 0-.105-.457.43.43 0 0 0-.724.289Z"/></g></g><defs><clipPath id="a"><path fill="#fff" d="M0 0h30v29H0z"/></clipPath></defs></svg>