<svg xmlns="http://www.w3.org/2000/svg" width="38" height="38" fill="none"><g clip-path="url(#a)"><path fill="#4B3F40" d="m37.344 2 .464-.471a.674.674 0 0 0-.212-1.088.648.648 0 0 0-.716.145l-.463.471-.464-.471a.65.65 0 0 0-.928 0 .674.674 0 0 0 0 .943l.464.47-.464.472a.674.674 0 0 0 .212 1.087.649.649 0 0 0 .716-.144l.464-.471.463.47a.647.647 0 0 0 .928 0 .674.674 0 0 0 0-.942L37.344 2Zm-2.896 9.333a.662.662 0 0 0 .656-.666.661.661 0 0 0-.656-.667.661.661 0 0 0-.656.667c0 .368.294.666.656.666Zm-1.806 9.935a2.589 2.589 0 0 0 3.71-.1c.482-.515.741-1.2.72-1.906a2.67 2.67 0 0 0-.818-1.864l-5.74-5.532v-7.2A.662.662 0 0 0 29.856 4h-4.592a.66.66 0 0 0-.656.667v1.51l-4.268-4.112a2.592 2.592 0 0 0-3.61 0L.82 17.398c-.509.49-.8 1.152-.818 1.864a2.675 2.675 0 0 0 1.585 2.521 2.588 2.588 0 0 0 2.843-.515l1.157-1.115V36a.66.66 0 0 0 .656.666h3.935v.667a.67.67 0 0 0 .557.658.65.65 0 0 0 .306-.025l3.835-1.3H31.17a.661.661 0 0 0 .655-.666v-8h2.296c.543 0 .984.448.984 1 0 .551-.44 1-.984 1h-.328a.662.662 0 0 0-.656.666c0 .369.294.667.656.667h.328c1.266 0 2.296-1.047 2.296-2.333 0-1.287-1.03-2.334-2.296-2.334h-2.296V20.48l.818.789v-.001Zm-6.72-15.935h3.28v5.269l-3.28-3.16v-2.11.001ZM3.526 20.301a1.295 1.295 0 0 1-1.855-.05c-.24-.258-.37-.6-.359-.953.01-.357.154-.687.41-.932L17.633 3.032a1.297 1.297 0 0 1 1.805 0L35.35 18.366c.254.245.4.575.408.932.01.355-.117.694-.359.953-.483.517-1.347.54-1.854.05L18.988 6.272a.648.648 0 0 0-.903 0L3.527 20.301Zm10.587 15.218-2.624.89V20.257l2.624.889v14.373Zm1.312-.186v-14h6.56V24h-2.624a.662.662 0 0 0-.656.666.659.659 0 0 0 .656.667h2.623v1.333h-2.623a.661.661 0 0 0-.656.667c0 .368.293.667.656.667h2.623v1.333h-2.623a.661.661 0 0 0-.656.667.66.66 0 0 0 .656.666h2.623v4.667h-6.559Zm15.087 0h-7.216v-4.667h1.968c.362 0 .656.3.656.667V32a.662.662 0 0 1-.656.666.661.661 0 0 0-.656.667c0 .368.293.667.656.667 1.085 0 1.968-.897 1.968-2v-.667c0-1.103-.883-2-1.968-2h-1.968V28h7.216v7.333Zm0-16v7.333h-7.216v-1.333h2.952c1.266 0 2.296-1.047 2.296-2.333 0-1.287-1.03-2.334-2.296-2.334h-.328a.661.661 0 0 0-.656.667c0 .368.293.667.656.667h.328c.542 0 .984.448.984 1 0 .551-.442 1-.984 1h-2.952v-3.334a.662.662 0 0 0-.656-.666h-7.765l-3.834-1.3a.646.646 0 0 0-.592.092.669.669 0 0 0-.272.541v16h-3.28V18.982c0-.028-.012-.051-.015-.078l11.653-11.23 11.996 11.56c-.005.034-.02.064-.02.1l.001-.001ZM7.555 4c1.085 0 1.968-.897 1.968-2S8.64 0 7.555 0 5.587.897 5.587 2s.883 2 1.968 2Zm0-2.667c.362 0 .656.3.656.667a.662.662 0 0 1-.656.667A.662.662 0 0 1 6.9 2c0-.368.294-.667.656-.667Z"/></g><defs><clipPath id="a"><path fill="#fff" d="M0 0h38v38H0z"/></clipPath></defs></svg>