<svg xmlns="http://www.w3.org/2000/svg" width="49" height="49" fill="none" viewBox="0 0 49 49"><path fill="#000" d="M47.918 34.912c-1.569-2.196-4.18-2.822-6.5-1.557l-7.896 4.308a2.983 2.983 0 0 0-2.89-2.254h-6.426c-.379-.765-1.169-2.223-1.944-2.797-4.587-4.146-12.56-.44-13.826.19H6.193v-1.835H0v1.418h4.775v10.873H0v1.418h6.193v-1.842h4.148l17.685 5.5 20.356-12.771-.464-.651ZM27.825 46.785l-17.166-5.337-.103-.032H6.193V34.22H8.78l.154-.08c.082-.044 8.254-4.246 12.4-.453l.035.032.038.027c.49.34 1.292 1.765 1.707 2.668l.19.413h7.328c.86 0 1.56.7 1.56 1.56 0 .86-.7 1.56-1.56 1.56h-9.644v1.419h9.644c1.32 0 2.442-.864 2.831-2.056l8.634-4.71c1.476-.804 3.064-.562 4.208.591L27.825 46.785Zm-8.348-23.437-1.649 3.467 3.767 3.767 3.468-1.649 2.566 1.063 1.286 3.618h5.327l1.286-3.618 2.566-1.063 3.468 1.649 3.766-3.767-1.648-3.467 1.063-2.567 3.617-1.286v-5.327l-3.617-1.286-1.063-2.566 1.648-3.468-3.766-3.766-3.468 1.648-2.566-1.063L34.242.05h-5.327l-1.286 3.617-2.567 1.063-3.467-1.648-3.767 3.766 1.649 3.468-1.063 2.566-3.618 1.286v5.327l3.618 1.286 1.063 2.567Zm-3.262-8.179 3.268-1.162 1.545-3.73-1.489-3.133 2.351-2.352 3.133 1.49 3.73-1.546 1.163-3.268h3.325l1.162 3.268 3.731 1.546 3.133-1.49 2.35 2.352-1.488 3.132 1.545 3.731 3.268 1.162v3.325l-3.268 1.163-1.545 3.73 1.489 3.133-2.351 2.351-3.133-1.489-3.73 1.545-1.163 3.269h-3.325l-1.162-3.269-3.73-1.545-3.134 1.49-2.35-2.352 1.488-3.133-1.545-3.73-3.268-1.163V15.17Zm9.313 5.681h.614v3.214h12.764v-4.632H37.25c-.964 0-1.749-.785-1.749-1.75 0-.964.785-1.748 1.75-1.748h1.654V11.3H35.69v-.615a3.17 3.17 0 0 0-3.167-3.167 3.17 3.17 0 0 0-3.167 3.167v.615h-3.215v3.214h-.614a3.17 3.17 0 0 0-3.168 3.168 3.17 3.17 0 0 0 3.168 3.167Zm0-4.916h2.032v-3.215h3.215v-2.033c0-.964.784-1.749 1.749-1.749.964 0 1.749.785 1.749 1.75v2.032h3.214v1.796h-.236a3.17 3.17 0 0 0-3.167 3.168 3.17 3.17 0 0 0 3.167 3.167h.236v1.796H27.56v-3.214h-2.032c-.965 0-1.75-.785-1.75-1.75 0-.964.785-1.748 1.75-1.748Z"/></svg>