<svg xmlns="http://www.w3.org/2000/svg" width="49" height="49" fill="none" viewBox="0 0 49 49"><path fill="#000" d="M15.246 3.233 14.69 1.93c-.446.19-.891.396-1.325.614L14 3.81c.408-.204.827-.399 1.246-.578ZM34.969 2.52c-.435-.216-.88-.422-1.327-.61l-.553 1.304c.42.178.839.371 1.248.575l.632-1.269ZM24.191 1.417c2.62 0 5.182.437 7.617 1.299l.473-1.336A24.19 24.19 0 0 0 24.191 0c-2.8 0-5.538.47-8.141 1.398l.476 1.335a22.767 22.767 0 0 1 7.665-1.316ZM13.42 45.864c.433.217.88.422 1.326.611l.553-1.305c-.42-.178-.84-.37-1.248-.574l-.632 1.269ZM24.19 46.964c-2.616 0-5.177-.436-7.61-1.296l-.473 1.336a24.189 24.189 0 0 0 8.084 1.378c2.801 0 5.542-.471 8.147-1.4l-.476-1.335a22.77 22.77 0 0 1-7.671 1.317ZM33.142 45.146l.557 1.304c.445-.19.891-.397 1.325-.615l-.636-1.267c-.408.205-.827.4-1.246.578ZM3.786 34.331a22.55 22.55 0 0 1-.52-1.121l-1.302.561c.172.4.358.802.553 1.192l1.269-.632ZM1.417 24.191c0-2.592.429-5.13 1.273-7.541l-1.338-.468A24.184 24.184 0 0 0 0 24.192c0 2.828.48 5.594 1.427 8.22l1.333-.48a22.763 22.763 0 0 1-1.343-7.74ZM3.754 14.118l-1.27-.628c-.215.435-.42.882-.607 1.329l1.306.549c.177-.42.369-.84.571-1.25ZM44.654 14.168c.201.41.392.83.567 1.252l1.309-.546c-.187-.447-.39-.895-.604-1.33l-1.272.624ZM47.05 16.238l-1.339.465a22.784 22.784 0 0 1 1.254 7.488c0 2.685-.459 5.307-1.362 7.794l1.332.484a24.163 24.163 0 0 0 1.447-8.278 24.2 24.2 0 0 0-1.332-7.953ZM44.62 34.281l1.271.629c.176-.356.345-.72.503-1.084l-1.3-.564c-.148.341-.308.684-.473 1.02ZM24.191 7.89c-8.988 0-16.3 7.313-16.3 16.301s7.312 16.3 16.3 16.3 16.3-7.312 16.3-16.3-7.312-16.3-16.3-16.3ZM19.5 10.067c-.732.742-1.408 1.666-2.01 2.758-.363.658-.69 1.361-.98 2.104a14.934 14.934 0 0 1-2.33-1.74 14.894 14.894 0 0 1 5.32-3.122Zm-6.322 4.124c.881.81 1.837 1.512 2.852 2.101-.685 2.186-1.077 4.637-1.138 7.192H9.325a14.826 14.826 0 0 1 3.853-9.293ZM9.325 24.9h5.567c.066 2.743.513 5.366 1.295 7.672a16.312 16.312 0 0 0-2.72 1.928 14.832 14.832 0 0 1-4.142-9.6Zm5.176 10.579a14.908 14.908 0 0 1 2.195-1.565c.242.574.507 1.124.794 1.645.602 1.092 1.278 2.015 2.01 2.757a14.882 14.882 0 0 1-4.999-2.837Zm8.981 3.534c-1.767-.306-3.432-1.748-4.75-4.139-.282-.51-.54-1.05-.775-1.618a14.824 14.824 0 0 1 5.525-1.347v7.104Zm0-8.522c-2.102.09-4.14.58-6.019 1.432-.693-2.112-1.09-4.51-1.153-7.023h7.172v5.591Zm0-7.008H16.31c.058-2.318.4-4.538.997-6.525a16.205 16.205 0 0 0 6.175 1.5v5.025Zm0-6.443a14.787 14.787 0 0 1-5.716-1.433c.284-.744.606-1.447.965-2.099 1.319-2.39 2.984-3.833 4.751-4.138v7.67Zm10.72-3.853a14.922 14.922 0 0 1-2.33 1.74 17.794 17.794 0 0 0-.98-2.103c-.602-1.092-1.278-2.016-2.01-2.758 1.993.664 3.8 1.737 5.32 3.121ZM24.9 9.37c1.767.305 3.432 1.747 4.75 4.138.36.652.683 1.355.966 2.099A14.787 14.787 0 0 1 24.9 17.04V9.37Zm0 9.088a16.206 16.206 0 0 0 6.175-1.5c.596 1.987.94 4.207.997 6.525H24.9v-5.025Zm0 6.442h7.172c-.063 2.513-.46 4.911-1.153 7.023a16.245 16.245 0 0 0-6.02-1.432V24.9Zm0 14.113v-7.104c1.931.091 3.802.552 5.525 1.347a16.142 16.142 0 0 1-.774 1.618c-1.319 2.391-2.985 3.833-4.751 4.139Zm3.982-.697c.732-.742 1.408-1.665 2.01-2.757.287-.52.552-1.07.794-1.645a14.9 14.9 0 0 1 2.195 1.565 14.883 14.883 0 0 1-4.999 2.837Zm6.033-3.816a16.32 16.32 0 0 0-2.72-1.928c.782-2.306 1.23-4.929 1.295-7.672h5.567a14.833 14.833 0 0 1-4.142 9.6ZM33.49 23.483c-.061-2.555-.453-5.006-1.138-7.192a16.337 16.337 0 0 0 2.852-2.1 14.827 14.827 0 0 1 3.853 9.292H33.49Z"/><path fill="#000" d="M7.701 13.23a5.44 5.44 0 0 0 5.434-5.434 5.44 5.44 0 0 0-5.434-5.434 5.44 5.44 0 0 0-5.433 5.434A5.44 5.44 0 0 0 7.7 13.229Zm0-9.45a4.02 4.02 0 0 1 4.017 4.016A4.02 4.02 0 0 1 7.7 11.812a4.02 4.02 0 0 1-4.016-4.016A4.02 4.02 0 0 1 7.701 3.78ZM40.775 13.23a5.44 5.44 0 0 0 5.434-5.434 5.44 5.44 0 0 0-5.434-5.434 5.44 5.44 0 0 0-5.433 5.434 5.44 5.44 0 0 0 5.433 5.433Zm0-9.45a4.02 4.02 0 0 1 4.016 4.016 4.02 4.02 0 0 1-4.016 4.016 4.02 4.02 0 0 1-4.016-4.016 4.02 4.02 0 0 1 4.016-4.016ZM7.701 35.247a5.44 5.44 0 0 0-5.433 5.434A5.44 5.44 0 0 0 7.7 46.114a5.44 5.44 0 0 0 5.434-5.433 5.44 5.44 0 0 0-5.434-5.434Zm0 9.45a4.02 4.02 0 0 1-4.016-4.016 4.02 4.02 0 0 1 4.016-4.017 4.02 4.02 0 0 1 4.017 4.017A4.02 4.02 0 0 1 7.7 44.697ZM40.775 35.247a5.44 5.44 0 0 0-5.433 5.434 5.44 5.44 0 0 0 5.433 5.433 5.44 5.44 0 0 0 5.434-5.433 5.44 5.44 0 0 0-5.434-5.434Zm0 9.45a4.02 4.02 0 0 1-4.016-4.016 4.02 4.02 0 0 1 4.016-4.017 4.02 4.02 0 0 1 4.016 4.017 4.02 4.02 0 0 1-4.016 4.016Z"/><path fill="#000" d="M7.701 9.922a2.129 2.129 0 0 0 2.127-2.126A2.129 2.129 0 0 0 7.7 5.67a2.129 2.129 0 0 0-2.126 2.126c0 1.173.954 2.126 2.126 2.126Zm0-2.835a.71.71 0 1 1-.001 1.42.71.71 0 0 1 .001-1.42ZM7.701 38.555a2.128 2.128 0 0 0-2.126 2.126c0 1.172.954 2.126 2.126 2.126a2.128 2.128 0 0 0 2.127-2.126A2.128 2.128 0 0 0 7.7 38.555Zm0 2.835a.71.71 0 1 1 .002-1.42.71.71 0 0 1-.002 1.42ZM40.775 9.922a2.129 2.129 0 0 0 2.126-2.126 2.129 2.129 0 0 0-2.126-2.126 2.129 2.129 0 0 0-2.126 2.126c0 1.173.954 2.126 2.126 2.126Zm0-2.835a.71.71 0 1 1-.001 1.42.71.71 0 0 1 .001-1.42ZM40.775 38.555a2.129 2.129 0 0 0-2.126 2.126c0 1.172.954 2.126 2.126 2.126a2.129 2.129 0 0 0 2.126-2.126 2.129 2.129 0 0 0-2.126-2.126Zm0 2.835a.71.71 0 1 1 .002-1.42.71.71 0 0 1-.002 1.42Z"/></svg>