<svg xmlns="http://www.w3.org/2000/svg" width="49" height="36" fill="none" viewBox="0 0 49 36"><path fill="#000" d="M48.382 18.19c0-12.49-14.66-19.277-24.185-11.288C14.679-1.089 0 5.716 0 18.191 0 30.636 14.664 37.484 24.197 29.48c9.53 7.993 24.185 1.195 24.185-11.29ZM10.26 5.653C9.295 6.692 8.453 8.077 7.79 9.75a13.295 13.295 0 0 1-1.952-1.456 13.329 13.329 0 0 1 4.421-2.642ZM4.834 9.298c.76.692 1.59 1.302 2.476 1.82-.605 1.948-.95 4.124-1.01 6.364H1.437a13.26 13.26 0 0 1 3.396-8.184ZM1.438 18.9h4.86c.065 2.425.462 4.746 1.15 6.793a14.747 14.747 0 0 0-2.357 1.67A13.267 13.267 0 0 1 1.438 18.9Zm4.691 9.442a13.325 13.325 0 0 1 1.83-1.304c.2.468.415.92.649 1.348a11.68 11.68 0 0 0 1.65 2.344 13.319 13.319 0 0 1-4.129-2.388Zm7.893 3.092c-1.55-.305-3.011-1.604-4.168-3.727-.23-.42-.44-.865-.634-1.328a13.259 13.259 0 0 1 4.802-1.17v6.225Zm0-7.647a14.676 14.676 0 0 0-5.296 1.258c-.6-1.853-.947-3.95-1.008-6.145h6.304v4.887Zm0-6.305H7.72c.057-2.004.354-3.947.872-5.7a14.78 14.78 0 0 0 5.431 1.32v4.38Zm0-5.8A13.347 13.347 0 0 1 9.05 10.43c1.18-3.063 3.018-5.082 4.973-5.48v6.733Zm9.123-3.808a14.845 14.845 0 0 0-1.505 1.795c-.658-1.639-1.489-2.997-2.439-4.02a13.266 13.266 0 0 1 3.944 2.225ZM15.441 4.95c1.952.396 3.791 2.414 4.974 5.48a13.35 13.35 0 0 1-4.974 1.253V4.95Zm0 8.153c1.657-.08 3.293-.44 4.823-1.059a14.628 14.628 0 0 0-1.328 5.438h-3.495v-4.38Zm0 5.797h3.495a14.626 14.626 0 0 0 1.641 6.076 14.637 14.637 0 0 0-5.136-1.187V18.9Zm0 12.532V25.21c1.674.087 3.297.485 4.802 1.171-1.183 2.834-2.926 4.675-4.802 5.051Zm3.756-.697c.984-1.06 1.742-2.37 2.307-3.696.257.152.509.314.757.484.28.342.575.67.884.985a13.267 13.267 0 0 1-3.948 2.227Zm4.236-4.02V26.5l-.26-.105a13.247 13.247 0 0 1-2.835-8.203c0-7.34 5.972-13.313 13.312-13.313 7.341 0 13.313 5.972 13.313 13.313 0 12.437-15.58 18.036-23.53 8.525Zm20.624 3.817.916 1.084a17.656 17.656 0 0 1-6.755 3.543l-.37-1.37a16.23 16.23 0 0 0 6.21-3.257ZM33.82 34.341l.015 1.419c-.49.005-.989-.01-1.477-.046l.104-1.416c.449.033.907.048 1.358.043Zm2.704-.255.252 1.397c-.483.087-.976.154-1.465.2l-.133-1.413c.45-.042.903-.104 1.346-.184ZM24.596 31.56a15.958 15.958 0 0 0 6.515 2.583l-.222 1.402a17.362 17.362 0 0 1-7.09-2.812l.797-1.173ZM36.523 2.296c-.443-.08-.896-.142-1.346-.184L35.31.699c.49.046.982.113 1.465.2l-.252 1.397Zm7.534 3.554a16.229 16.229 0 0 0-6.208-3.257l.369-1.37a17.657 17.657 0 0 1 6.755 3.543l-.916 1.084ZM32.46 2.083 32.357.668c.488-.035.986-.051 1.477-.046l-.015 1.419c-.451-.004-.91.01-1.359.042Zm-7.864 2.74-.798-1.173a17.365 17.365 0 0 1 7.09-2.812l.223 1.401a15.958 15.958 0 0 0-6.515 2.584Zm9.552 2.846H32.73v-1.42h1.42v1.42Zm0 22.418H32.73v-1.419h1.42v1.42ZM21.52 17.46h1.419v1.419H21.52v-1.419Zm23.838 1.419h-1.42v-1.419h1.42v1.419ZM25.513 9.239l1.003 1.003-1.003 1.004-1.004-1.004 1.004-1.003Zm15.852 17.859-1.003-1.003 1.003-1.003 1.003 1.003-1.003 1.003Zm0-15.852-1.003-1.004 1.003-1.003 1.003 1.003-1.003 1.004ZM25.513 25.09l1.003 1.004-1.003 1.003-1.004-1.003 1.004-1.004Zm11.391-2.36-4.175-4.273V8.993h1.42v8.886l3.77 3.861-1.015.992Z"/></svg>