<svg xmlns="http://www.w3.org/2000/svg" width="38" height="30" fill="none"><path fill="#4B3F40" d="M37.406 17.969h-5.64v-4.156h.89c.982 0 1.78-.8 1.78-1.781v-5.94c0-.981-.798-1.78-1.78-1.78h-4.752c-.982 0-1.781.799-1.781 1.78v1.783H20.78V5.5c0-.982-.8-1.781-1.781-1.781h-2.375v-.112a1.778 1.778 0 0 0 1.189-1.672c0-.982-.8-1.781-1.782-1.781s-1.781.8-1.781 1.78a1.78 1.78 0 0 0 1.187 1.673v.11h-2.375c-.982 0-1.781.8-1.781 1.782v8.905H9.5V13.22a.593.593 0 0 0-.594-.593H6.531V.747a.594.594 0 0 0-1.187 0v11.88H4.156V.748a.594.594 0 0 0-1.187 0v11.88H.594A.594.594 0 0 0 0 13.22v16.032c0 .328.265.593.594.593h8.312a.592.592 0 0 0 .594-.593V17.375h1.78v10.69c0 .982.8 1.78 1.782 1.78h5.937c.982 0 1.781-.8 1.781-1.78V10.844h5.343v1.188c0 .982.799 1.78 1.78 1.78h.894v4.157h-5.642a.594.594 0 0 0-.594.593v10.69c0 .328.266.593.594.593h14.251a.592.592 0 0 0 .594-.593v-10.69a.594.594 0 0 0-.594-.593ZM8.313 28.659H1.186v-2.376h7.125v2.376h.002Zm0-3.564H1.186v-5.342h.594v4.156c0 .328.266.594.594.594h4.75a.592.592 0 0 0 .594-.594v-4.156h.593v5.342h.002Zm-5.344-1.78v-3.562H6.53v3.562H2.969Zm5.344-4.75H1.188v-4.75h7.125v4.75Zm2.968-2.378H9.5v-.593h1.78v.593h.001Zm4.75-14.845a.594.594 0 1 1 0 1.188.594.594 0 0 1 0-1.188Zm3.562 26.723a.594.594 0 0 1-.594.593h-5.937a.594.594 0 0 1-.594-.593V7.172c.187.067.384.11.594.11h5.937c.21 0 .407-.043.594-.11v20.893Zm-.594-21.97h-5.937a.594.594 0 0 1 0-1.188h2.376a.593.593 0 0 0 1.186 0h2.375a.594.594 0 0 1 0 1.188Zm7.124 3.56H20.78v-.593h5.343v.594Zm1.78 2.97a.594.594 0 0 1-.593-.593v-5.94c0-.327.266-.593.594-.593h4.752c.327 0 .593.266.593.594v5.939a.594.594 0 0 1-.593.593h-4.753Zm-2.966 16.033h-1.188V21.53h1.188v7.128Zm0-8.314h-1.188v-1.188h1.188v1.188Zm2.374 8.314h-1.187V21.53h1.187v7.128Zm0-8.314h-1.187v-1.188h1.187v1.188Zm2.375 8.314h-1.187V21.53h1.187v7.128Zm0-8.314h-1.187v-1.188h1.187v1.188Zm.892-2.375h-.594v-4.156h.594v4.156Zm1.482 10.689h-1.187V21.53h1.187v7.128Zm0-8.314h-1.187v-1.188h1.187v1.188Zm2.377 8.314h-1.19V21.53h1.19v7.128Zm0-8.314h-1.19v-1.188h1.19v1.188Zm2.376 8.314h-1.188V21.53h1.188v7.128Zm0-8.314h-1.188v-1.188h1.188v1.188Z"/></svg>