<svg xmlns="http://www.w3.org/2000/svg" width="29" height="28" fill="none"><mask id="a" width="29" height="28" x="0" y="0" maskUnits="userSpaceOnUse" style="mask-type:luminance"><path fill="#fff" d="M.372 0h28.256v28H.372V0Z"/></mask><g fill="#4B3F40" mask="url(#a)"><path d="M11.396 24.096a6.453 6.453 0 0 1-3.301-2.323A6.357 6.357 0 0 1 6.84 17.96a6.34 6.34 0 0 1 1.264-3.813.546.546 0 0 0-.32-.855.558.558 0 0 0-.576.211 7.42 7.42 0 0 0-1.475 4.457c0 1.636.521 3.193 1.508 4.5a7.653 7.653 0 0 0 3.827 2.683.558.558 0 0 0 .692-.36.544.544 0 0 0-.364-.687Z"/><path d="M25.58 12.812a4.799 4.799 0 0 0-.95-2.876l-3.502-5.152a.551.551 0 0 0-.46-.243.557.557 0 0 0-.459.243l-1.476 2.17L14.17.242A.551.551 0 0 0 13.71 0a.557.557 0 0 0-.459.242L5.42 11.765a10.057 10.057 0 0 0-1.998 6.039C3.421 23.426 8.037 28 13.711 28c5.674 0 10.29-4.574 10.29-10.196 0-.45-.03-.9-.089-1.341a4.86 4.86 0 0 0 1.231-1.647 4.82 4.82 0 0 0 .436-2.004Zm-4.913-6.74 3.044 4.477c.496.652.763 1.447.76 2.264a3.756 3.756 0 0 1-1.115 2.664 3.826 3.826 0 0 1-5.377 0 3.757 3.757 0 0 1-1.116-2.664 3.717 3.717 0 0 1 .76-2.263l1.568-2.305.008-.013 1.468-2.16Zm2.227 11.732c0 5.018-4.12 9.1-9.184 9.1-5.064 0-9.183-4.082-9.183-9.1a8.975 8.975 0 0 1 1.81-5.427L13.71 1.53l4.355 6.407-1.359 2a4.798 4.798 0 0 0-.95 2.876 4.849 4.849 0 0 0 1.44 3.44 4.939 4.939 0 0 0 5.675.908c.015.214.023.428.023.643Z"/><path d="M18.717 12.679c0-.265.054-.523.162-.763a.544.544 0 0 0-.281-.723.558.558 0 0 0-.73.278 2.947 2.947 0 0 0-.14 2.036 2.974 2.974 0 0 0 1.216 1.645.558.558 0 0 0 .768-.15.545.545 0 0 0-.152-.761 1.863 1.863 0 0 1-.843-1.562Zm-5.268 12.177c-.136-.353-.64-.453-.902-.177-.312.299-.145.847.282.924.424.092.794-.354.62-.747Zm6.928-9.204c.357.245.867-.026.86-.455.007-.43-.504-.702-.86-.457-.324.201-.325.712 0 .912Z"/></g></svg>