<svg xmlns="http://www.w3.org/2000/svg" width="35" height="34" fill="none"><g clip-path="url(#a)"><mask id="b" width="35" height="34" x="0" y="0" maskUnits="userSpaceOnUse" style="mask-type:luminance"><path fill="#fff" d="M.449 0H34.55v34H.45V0Z"/></mask><g fill="#4B3F40" mask="url(#b)"><path d="M20.912 10.204c0-1.706-.428-3.384-1.246-4.882a10.21 10.21 0 0 0-3.438-3.692 10.25 10.25 0 0 0-13.71 2.427 10.182 10.182 0 0 0-1.437 9.657 10.197 10.197 0 0 0 2.859 4.154.55.55 0 0 0-.077.268v4.532c.001.751.301 1.471.834 2.002a2.85 2.85 0 0 0 2.008.83h.045c.123.847.517 1.631 1.123 2.236a3.981 3.981 0 0 0 2.242 1.12v2.311a1.696 1.696 0 0 1-1.053 1.57 1.71 1.71 0 0 1-2.227-.92 1.696 1.696 0 0 1-.13-.65V29.75c-.001-.676-.27-1.324-.75-1.802a2.565 2.565 0 0 0-1.808-.748 2.57 2.57 0 0 0-1.806.75 2.554 2.554 0 0 0-.752 1.8v3.683a.566.566 0 0 0 .569.567.57.57 0 0 0 .568-.567V29.75a1.432 1.432 0 0 1 1.42-1.416c.786 0 1.422.634 1.422 1.416v1.416c0 .752.3 1.472.832 2.004a2.846 2.846 0 0 0 4.019 0 2.829 2.829 0 0 0 .832-2.004v-2.31a3.982 3.982 0 0 0 2.24-1.121 3.96 3.96 0 0 0 1.124-2.234h.046c.753-.001 1.475-.3 2.008-.83a2.832 2.832 0 0 0 .833-2.003v-4.532a.546.546 0 0 0-.076-.268 10.178 10.178 0 0 0 3.487-7.664Zm-19.322 0a9.044 9.044 0 0 1 1.16-4.439 9.078 9.078 0 0 1 3.192-3.304 9.113 9.113 0 0 1 12.323 2.731 9.048 9.048 0 0 1-2.29 12.377H11.25v-4.017a3.412 3.412 0 0 0 2.126-1.269 3.393 3.393 0 0 0-.386-4.586 3.416 3.416 0 0 0-4.617 0 3.396 3.396 0 0 0 1.74 5.855v4.017H5.391a9.078 9.078 0 0 1-2.793-3.225 9.048 9.048 0 0 1-1.008-4.14Zm14.776 8.498v1.133H4.999v-1.133h11.367ZM4.999 20.969h11.366v1.134H4.999v-1.134Zm5.682-8.498a2.277 2.277 0 0 1-1.607-.664 2.263 2.263 0 0 1 0-3.205 2.277 2.277 0 0 1 3.215 0 2.263 2.263 0 0 1 0 3.205 2.277 2.277 0 0 1-1.608.664Zm0 15.297a2.852 2.852 0 0 1-1.796-.64 2.837 2.837 0 0 1-.988-1.626h5.569a2.835 2.835 0 0 1-.988 1.627 2.852 2.852 0 0 1-1.797.64Zm3.979-3.4H6.705a1.713 1.713 0 0 1-1.608-1.133h11.172a1.703 1.703 0 0 1-1.608 1.134h-.001Zm10.23-23.23a8.548 8.548 0 0 1 6.025 2.492 8.496 8.496 0 0 1 2.5 6.007.564.564 0 0 0 .568.567.569.569 0 0 0 .568-.567C34.546 4.32 30.224.012 24.891.005a.569.569 0 0 0-.569.567.566.566 0 0 0 .568.566Z"/><path d="M24.89 3.405a6.268 6.268 0 0 1 4.418 1.828 6.23 6.23 0 0 1 1.834 4.404.566.566 0 0 0 .568.567.569.569 0 0 0 .568-.567 7.363 7.363 0 0 0-2.166-5.205 7.408 7.408 0 0 0-5.222-2.16.57.57 0 0 0-.568.567.566.566 0 0 0 .568.566Z"/><path d="M24.89 5.67a3.989 3.989 0 0 1 2.812 1.164 3.965 3.965 0 0 1 1.167 2.802.564.564 0 0 0 .568.567.569.569 0 0 0 .568-.567 5.098 5.098 0 0 0-1.5-3.603 5.128 5.128 0 0 0-3.615-1.496.57.57 0 0 0-.568.567.566.566 0 0 0 .568.567Z"/><path d="M24.821 7.302a1.698 1.698 0 0 0 1.2 2.925 1.71 1.71 0 0 0 1.212-.522 1.697 1.697 0 0 0 0-2.403 1.75 1.75 0 0 0-2.412 0Zm1.608 1.602a.58.58 0 0 1-.804 0 .566.566 0 0 1 .718-.872.567.567 0 0 1 .086.872Zm4.003 3.76a.582.582 0 0 0-.852 0l-3.978 4.532a.566.566 0 0 0 .424.94h1.705V28.9c0 .313.255.567.568.567h3.41a.568.568 0 0 0 .568-.567V18.136h1.705a.57.57 0 0 0 .562-.649.566.566 0 0 0-.134-.29l-3.979-4.533h.001Zm1.278 4.339a.57.57 0 0 0-.569.566v10.765h-2.273V17.569a.565.565 0 0 0-.568-.567h-1.023l2.728-3.105 2.728 3.105H31.71Zm-5.114 11.332H24.89V17.569a.566.566 0 0 0-.568-.566h-3.41a.57.57 0 0 0-.568.566v10.766h-1.705a.57.57 0 0 0-.562.649.565.565 0 0 0 .135.29l3.978 4.533a.568.568 0 0 0 .853 0l3.977-4.533a.566.566 0 0 0-.424-.94Zm-3.979 4.238-2.728-3.105h1.023a.568.568 0 0 0 .568-.567V18.135h2.273v10.766c0 .313.255.566.57.566h1.022l-2.728 3.106ZM10.683 6.237a.567.567 0 0 0 .568-.566V4.538a.567.567 0 0 0-.786-.524.569.569 0 0 0-.35.524v1.133c0 .313.254.566.568.566Zm3.215 1.328a.57.57 0 0 0 .402-.166l.803-.801a.566.566 0 0 0-.404-.959.57.57 0 0 0-.4.158l-.803.8a.567.567 0 0 0 .402.968Zm.763 2.639c0 .313.254.566.569.566h1.136a.57.57 0 0 0 .568-.567.566.566 0 0 0-.568-.567H15.23a.57.57 0 0 0-.569.568Zm-.361 2.804a.57.57 0 0 0-.97.4c0 .15.059.295.166.401l.804.801a.57.57 0 0 0 .97-.401c0-.15-.06-.294-.167-.4l-.803-.801Zm-8.037.801a.567.567 0 1 0 .803.801l.804-.801a.566.566 0 0 0-.402-.967.57.57 0 0 0-.402.166l-.803.801ZM5 10.77h1.137a.57.57 0 0 0 .568-.567.566.566 0 0 0-.568-.567H5a.57.57 0 0 0-.569.567.566.566 0 0 0 .568.567ZM7.066 7.4a.57.57 0 0 0 .971-.401c0-.15-.06-.295-.167-.401l-.804-.801a.569.569 0 1 0-.803.8l.803.802Z"/></g></g><defs><clipPath id="a"><path fill="#fff" d="M0 0h35v34H0z"/></clipPath></defs></svg>