<svg xmlns="http://www.w3.org/2000/svg" width="18" height="18" fill="none"><path fill="#006DB7" d="M16.075.852a1.889 1.889 0 0 1 1.89 1.89v13.221a1.889 1.889 0 0 1-1.89 1.89H2.853a1.889 1.889 0 0 1-1.889-1.89V2.741A1.889 1.889 0 0 1 2.854.852h13.221Zm-.472 14.64v-5.007a3.079 3.079 0 0 0-3.079-3.078c-.803 0-1.738.49-2.19 1.227V7.586H7.697v7.905h2.635v-4.656a1.318 1.318 0 1 1 2.635 0v4.656h2.635ZM4.63 6.102a1.587 1.587 0 0 0 1.586-1.586c0-.879-.708-1.596-1.586-1.596a1.596 1.596 0 0 0-1.596 1.596c0 .878.717 1.586 1.596 1.586Zm1.312 9.388V7.586H3.325v7.905h2.616Z"/></svg>