<svg xmlns="http://www.w3.org/2000/svg" width="16" height="18" fill="none"><path fill="#006DB7" d="M12.384.847a24.324 24.324 0 0 0-8.823 0C2.276 1.117.657 2.622.377 3.807a16.407 16.407 0 0 0 0 6.994c.335 1.182 1.956 2.69 3.184 2.958.056 0 .111.054.111.107v3.39c0 .16.224.27.336.108l1.675-1.668s1.34-1.346 1.563-1.56c0 0 .056-.054.112-.054 1.676.054 3.407-.107 5.082-.377 1.285-.269 2.904-1.774 3.183-2.959a16.408 16.408 0 0 0 0-6.994c-.335-1.13-1.955-2.637-3.238-2.905h-.001Zm.056 10.115c-.28.537-.614.967-1.172 1.237l-.503.16c-.224-.053-.392-.107-.56-.16-1.786-.7-3.462-1.668-4.802-3.068a12.914 12.914 0 0 1-1.842-2.688c-.224-.484-.447-.916-.615-1.4-.168-.43.112-.86.391-1.183a2.59 2.59 0 0 1 1.005-.7c.279-.16.558-.054.782.162.447.538.894 1.076 1.23 1.668.223.376.167.807-.224 1.076a.97.97 0 0 0-.28.215c-.056.053-.167.108-.223.215a.51.51 0 0 0-.056.484c.447 1.238 1.284 2.205 2.569 2.744.223.108.39.161.67.161.391-.053.559-.484.838-.698.28-.216.614-.216.949-.055.28.16.559.377.894.592.28.215.559.377.838.591.166.109.222.377.11.647Zm-2.345-4.035c-.056 0-.111 0 0 0-.223 0-.279-.108-.335-.27 0-.107 0-.268-.056-.376a1.02 1.02 0 0 0-.39-.59l-.335-.164c-.167-.053-.28-.053-.447-.053-.167-.054-.223-.16-.223-.322 0-.109.167-.216.28-.216.892.054 1.562.538 1.675 1.56v.215c0 .108-.057.216-.169.216ZM9.537 4.56c-.28-.107-.56-.214-.893-.269-.112 0-.28-.054-.391-.054-.168 0-.28-.107-.224-.268 0-.16.112-.269.28-.216.558.054 1.06.161 1.563.377 1.006.484 1.564 1.291 1.732 2.367v.7c-.056.215-.447.268-.503 0 0-.055-.056-.162-.056-.216a3.041 3.041 0 0 0-.335-1.398 2.967 2.967 0 0 0-1.173-1.023Zm3.015 3.228c-.167 0-.279-.16-.279-.323 0-.323-.056-.645-.112-.968-.222-1.721-1.675-3.12-3.405-3.388-.28-.055-.56-.055-.783-.109-.167 0-.39 0-.447-.215-.055-.16.112-.323.28-.323h.112c2.29.054.111 0 0 0 2.345.054 4.3 1.56 4.69 3.82.056.376.112.753.112 1.183.112.162 0 .323-.168.323Z"/></svg>